# xmcd CD database file
#
# Track frame offsets:
#	150
#	26777
#	50052
#	86222
#	105252
#	124742
#	152362
#	179227
#	202115
#	232980
#	255547
#	280050
#	308775
#	330155
#
# Disc length: 4548 seconds
#
# Revision: 0
# Processed by: cddbd v1.5.1PL0 Copyright (c) Steve Scherf et al.
# Submitted via: CDex 1.51
#
DISCID=bc11c20e
DTITLE=Yngwie J. Malmsteen's Rising Force - Fatal Alumni
DYEAR=1999
DGENRE=Heavy Metal
TTITLE0=Far Beyond The Sun
TTITLE1=Evil Eye
TTITLE2=Trilogy Suite Op. 5
TTITLE3=Red House
TTITLE4=Guitar Solo
TTITLE5=Black Star (Acoustic Guitar Solo)
TTITLE6=Molto Arpeggiosa
TTITLE7=I'll See The Light, Tonight
TTITLE8=Highway Star
TTITLE9=Evil Eye
TTITLE10=Lazy
TTITLE11=Trilogy Suite Op. 5
TTITLE12=Red House
TTITLE13=Purple Haze
EXTD=YEAR: 1999-2000
EXTT0=
EXTT1=
EXTT2=
EXTT3=
EXTT4=
EXTT5=
EXTT6=
EXTT7=
EXTT8=
EXTT9=
EXTT10=
EXTT11=
EXTT12=
EXTT13=
PLAYORDER=
